<svg width="217" height="280" viewBox="0 0 217 280" fill="none" xmlns="http://www.w3.org/2000/svg">
<path d="M62.34 223V208.31H68.34V222.74C68.34 227.74 70.51 229.74 74.17 229.74C77.83 229.74 80 227.74 80 222.74V208.31H86V223C86 230.7 81.59 235 74.16 235C66.73 235 62.34 230.66 62.34 223Z" fill="#005897"/>
<path d="M105.1 228.87H93L90.69 234.47H84.43L96.09 208.31H102.09L113.79 234.47H107.44L105.1 228.87ZM103.19 224.27L99.05 214.27L94.9 224.27H103.19Z" fill="#005897"/>
<path d="M139.09 234.47V218.78L131.39 231.71H128.66L121 219.11V234.47H115.32V208.31H120.32L130.11 224.57L139.75 208.31H144.75L144.83 234.47H139.09Z" fill="#005897"/>
<path d="M153.68 211.07C153.684 211.686 153.505 212.29 153.165 212.804C152.825 213.319 152.34 213.72 151.772 213.958C151.203 214.197 150.577 214.26 149.972 214.142C149.367 214.023 148.811 213.728 148.375 213.293C147.938 212.858 147.641 212.302 147.52 211.698C147.4 211.093 147.461 210.467 147.698 209.898C147.934 209.328 148.334 208.842 148.847 208.501C149.361 208.159 149.964 207.978 150.58 207.98C150.99 207.966 151.398 208.037 151.78 208.187C152.162 208.337 152.509 208.564 152.799 208.854C153.09 209.143 153.318 209.489 153.469 209.87C153.621 210.252 153.693 210.66 153.68 211.07ZM153.08 211.07C153.092 210.737 153.036 210.406 152.916 210.096C152.795 209.786 152.611 209.504 152.377 209.268C152.142 209.031 151.862 208.846 151.553 208.722C151.244 208.599 150.913 208.54 150.58 208.55C149.906 208.55 149.26 208.818 148.784 209.294C148.308 209.77 148.04 210.416 148.04 211.09C148.04 211.764 148.308 212.41 148.784 212.886C149.26 213.362 149.906 213.63 150.58 213.63C150.914 213.631 151.245 213.566 151.552 213.437C151.86 213.308 152.139 213.119 152.372 212.88C152.606 212.641 152.788 212.358 152.91 212.047C153.032 211.736 153.089 211.404 153.08 211.07ZM151.56 211.65L152.31 212.8H151.39L150.75 211.8H150.14V212.8H149.22V209.38H150.71C151.65 209.38 152.2 209.85 152.2 210.59C152.213 210.811 152.159 211.03 152.045 211.22C151.931 211.409 151.762 211.559 151.56 211.65ZM150.65 211.12C151.07 211.12 151.3 210.93 151.3 210.59C151.3 210.25 151.07 210.06 150.65 210.06H150.13V211.12H150.65Z" fill="#005897"/>
<path d="M58.85 157.75C58.8684 158.583 58.7398 159.412 58.47 160.2C58.2431 160.87 57.8748 161.484 57.39 162C56.9063 162.453 56.3295 162.794 55.7 163C54.9808 163.237 54.2271 163.352 53.47 163.34C52.7227 163.351 51.9789 163.236 51.27 163C50.6291 162.779 50.0477 162.413 49.5708 161.931C49.094 161.449 48.7344 160.863 48.52 160.22C48.2549 159.455 48.1262 158.649 48.14 157.84V150.63H50.32V157.75C50.2544 158.713 50.5584 159.664 51.17 160.41C51.4711 160.722 51.8362 160.964 52.2402 161.122C52.6441 161.279 53.0773 161.346 53.51 161.32C53.9357 161.342 54.3615 161.277 54.7607 161.127C55.1599 160.977 55.5239 160.747 55.83 160.45C56.4376 159.722 56.7387 158.786 56.67 157.84V150.63H58.85V157.75Z" fill="#005897"/>
<path d="M70.43 150.65H72.61V163.17H70.77L63.88 154.26V163.17H61.7V150.65H63.7L70.4 159.3L70.43 150.65Z" fill="#005897"/>
<path d="M78 150.65V163.17H75.77V150.65H78Z" fill="#005897"/>
<path d="M90 150.65H92.38L87.2 163.26H85.27L80.07 150.65H82.5L86.27 160.27L90 150.65Z" fill="#005897"/>
<path d="M103.64 152.63H96.56V155.85H102.83V157.85H96.56V161.19H103.73V163.19H94.37V150.65H103.64V152.63Z" fill="#005897"/>
<path d="M114.21 163.17L111.12 158.8H108.36V163.17H106.18V150.65H111.76C112.417 150.64 113.072 150.735 113.7 150.93C114.235 151.087 114.732 151.353 115.16 151.71C115.56 152.052 115.878 152.479 116.09 152.96C116.307 153.486 116.416 154.051 116.41 154.62C116.416 155.097 116.338 155.57 116.18 156.02C116.041 156.416 115.835 156.785 115.57 157.11C115.303 157.429 114.985 157.703 114.63 157.92C114.252 158.144 113.845 158.316 113.42 158.43L116.8 163.17H114.21ZM113.49 153.17C112.927 152.785 112.251 152.598 111.57 152.64H108.36V156.86H111.59C112.264 156.897 112.93 156.695 113.47 156.29C113.687 156.092 113.861 155.851 113.979 155.583C114.098 155.314 114.159 155.024 114.159 154.73C114.159 154.436 114.098 154.146 113.979 153.877C113.861 153.609 113.687 153.368 113.47 153.17H113.49Z" fill="#005897"/>
<path d="M120.9 154.56C121.003 154.766 121.158 154.942 121.35 155.07C121.637 155.25 121.946 155.392 122.27 155.49C122.66 155.63 123.15 155.76 123.75 155.91C124.345 156.055 124.929 156.239 125.5 156.46C125.957 156.637 126.383 156.886 126.76 157.2C127.081 157.476 127.34 157.817 127.52 158.2C127.7 158.634 127.788 159.1 127.78 159.57C127.791 160.118 127.678 160.662 127.45 161.16C127.24 161.617 126.929 162.021 126.54 162.34C126.123 162.676 125.644 162.928 125.13 163.08C124.545 163.249 123.939 163.333 123.33 163.33C122.384 163.332 121.445 163.163 120.56 162.83C119.652 162.493 118.819 161.98 118.11 161.32L119.43 159.75C119.984 160.238 120.603 160.645 121.27 160.96C121.935 161.248 122.655 161.392 123.38 161.38C123.946 161.422 124.511 161.289 125 161C125.189 160.872 125.342 160.699 125.447 160.496C125.552 160.294 125.604 160.068 125.6 159.84C125.604 159.63 125.563 159.423 125.48 159.23C125.389 159.027 125.24 158.856 125.05 158.74C124.783 158.561 124.494 158.416 124.19 158.31C123.83 158.18 123.35 158.05 122.77 157.9C122.163 157.769 121.565 157.598 120.98 157.39C120.508 157.22 120.066 156.977 119.67 156.67C119.33 156.403 119.056 156.061 118.87 155.67C118.669 155.203 118.573 154.698 118.59 154.19C118.585 153.673 118.694 153.16 118.91 152.69C119.117 152.248 119.417 151.856 119.79 151.54C120.183 151.207 120.639 150.955 121.13 150.8C121.686 150.623 122.267 150.536 122.85 150.54C123.69 150.526 124.527 150.662 125.32 150.94C126.068 151.217 126.767 151.612 127.39 152.11L126.21 153.78C125.69 153.374 125.118 153.037 124.51 152.78C123.969 152.564 123.392 152.452 122.81 152.45C122.274 152.414 121.742 152.57 121.31 152.89C121.143 153.012 121.007 153.171 120.913 153.355C120.819 153.539 120.77 153.743 120.77 153.95C120.766 154.161 120.811 154.369 120.9 154.56Z" fill="#005897"/>
<path d="M132.5 150.65V163.17H130.32V150.65H132.5Z" fill="#005897"/>
<path d="M146.52 159.37C146.214 160.126 145.75 160.807 145.16 161.37C144.548 161.942 143.832 162.39 143.05 162.69C142.19 163.026 141.273 163.192 140.35 163.18H135.69V150.65H140.35C141.271 150.641 142.186 150.801 143.05 151.12C143.832 151.42 144.548 151.868 145.16 152.44C145.749 153.003 146.213 153.685 146.52 154.44C146.852 155.221 147.019 156.062 147.01 156.91C147.015 157.755 146.848 158.592 146.52 159.37ZM144.39 155.21C144.185 154.705 143.887 154.244 143.51 153.85C143.119 153.462 142.653 153.159 142.14 152.96C141.567 152.734 140.956 152.622 140.34 152.63H137.87V161.18H140.34C140.954 161.19 141.565 161.085 142.14 160.87C142.652 160.674 143.118 160.374 143.51 159.99C143.889 159.602 144.188 159.143 144.39 158.64C144.803 157.534 144.803 156.316 144.39 155.21Z" fill="#005897"/>
<path d="M160.62 163.17H158.29L157.02 160.17H151.1L149.82 163.17H147.56L153.07 150.56H155.07L160.62 163.17ZM154.05 153.17L151.91 158.17H156.22L154.05 153.17Z" fill="#005897"/>
<path d="M173.42 159.37C173.114 160.126 172.65 160.807 172.06 161.37C171.448 161.942 170.732 162.39 169.95 162.69C169.09 163.026 168.173 163.192 167.25 163.18H162.59V150.65H167.25C168.171 150.641 169.086 150.801 169.95 151.12C170.732 151.42 171.448 151.868 172.06 152.44C172.649 153.003 173.113 153.685 173.42 154.44C173.752 155.221 173.919 156.062 173.91 156.91C173.915 157.755 173.748 158.592 173.42 159.37ZM171.29 155.21C171.085 154.705 170.787 154.244 170.41 153.85C170.004 153.472 169.524 153.182 169 153C168.427 152.774 167.816 152.662 167.2 152.67H164.73V161.22H167.2C167.814 161.23 168.425 161.125 169 160.91C169.512 160.714 169.978 160.414 170.37 160.03C170.749 159.642 171.048 159.183 171.25 158.68C171.663 157.574 171.663 156.356 171.25 155.25L171.29 155.21Z" fill="#005897"/>
<path d="M50.57 181.45H48.25L46.98 178.45H41.06L39.77 181.45H37.52L43 168.84H45L50.57 181.45ZM44.01 171.45L41.86 176.45H46.17L44.01 171.45Z" fill="#005897"/>
<path d="M62.61 176C62.6242 176.832 62.4957 177.661 62.23 178.45C62.0008 179.11 61.6286 179.711 61.14 180.21C60.6683 180.692 60.0892 181.055 59.45 181.27C58.735 181.511 57.9844 181.629 57.23 181.62C56.4821 181.629 55.7382 181.511 55.03 181.27C54.3956 181.056 53.8202 180.697 53.35 180.22C52.8661 179.735 52.4971 179.147 52.27 178.5C52.009 177.731 51.8838 176.922 51.9 176.11V168.9H54.08V176.02C54.0082 176.983 54.313 177.937 54.93 178.68C55.2292 178.992 55.5922 179.236 55.9944 179.395C56.3966 179.554 56.8283 179.624 57.26 179.6C57.6867 179.623 58.1134 179.556 58.5129 179.405C58.9124 179.253 59.2758 179.02 59.58 178.72C59.8864 178.362 60.1192 177.948 60.2651 177.5C60.411 177.052 60.467 176.58 60.43 176.11V168.9H62.61V176Z" fill="#005897"/>
<path d="M70.75 181.45H68.53V171H64.53V169H74.72V171H70.72L70.75 181.45Z" fill="#005897"/>
<path d="M88.92 177.68C88.6053 178.449 88.1433 179.149 87.56 179.74C86.9654 180.337 86.263 180.815 85.49 181.15C84.6509 181.501 83.7494 181.677 82.84 181.67C81.9301 181.683 81.0274 181.506 80.19 181.15C79.4183 180.832 78.7179 180.363 78.13 179.77C77.555 179.176 77.1001 178.476 76.79 177.71C76.468 176.916 76.305 176.067 76.31 175.21C76.3057 174.35 76.4687 173.498 76.79 172.7C77.2876 171.502 78.1328 170.481 79.2166 169.768C80.3003 169.055 81.5729 168.683 82.87 168.7C83.7788 168.689 84.6804 168.862 85.52 169.21C86.2898 169.524 86.988 169.99 87.5724 170.582C88.1567 171.173 88.6152 171.877 88.92 172.65C89.557 174.256 89.557 176.044 88.92 177.65V177.68ZM86.78 173.48C86.5796 172.957 86.2847 172.476 85.91 172.06C85.5286 171.643 85.0702 171.303 84.56 171.06C84.0172 170.825 83.4314 170.706 82.84 170.71C82.2512 170.699 81.6673 170.819 81.13 171.06C80.6269 171.279 80.1742 171.599 79.8 172C79.421 172.413 79.1256 172.895 78.93 173.42C78.5207 174.534 78.5207 175.756 78.93 176.87C79.1277 177.396 79.4266 177.879 79.81 178.29C80.1984 178.713 80.6718 179.049 81.1991 179.277C81.7264 179.504 82.2958 179.618 82.87 179.61C83.4576 179.618 84.0402 179.502 84.58 179.27C85.0864 179.03 85.5389 178.69 85.91 178.27C86.2889 177.857 86.5844 177.375 86.78 176.85C86.9902 176.301 87.0953 175.718 87.09 175.13C87.0848 174.566 86.9799 174.007 86.78 173.48ZM82.09 167.89L84 165L86 165.88L83.82 167.88L82.09 167.89Z" fill="#005897"/>
<path d="M100.62 168.93H102.8V181.45H101L94.11 172.54V181.45H91.89V168.93H93.89L100.59 177.59L100.62 168.93Z" fill="#005897"/>
<path d="M117.89 177.68C117.579 178.451 117.116 179.151 116.53 179.74C115.937 180.339 115.234 180.818 114.46 181.15C113.621 181.501 112.719 181.678 111.81 181.67C110.9 181.682 109.998 181.505 109.16 181.15C108.393 180.834 107.697 180.366 107.115 179.775C106.533 179.184 106.075 178.482 105.77 177.71C105.44 176.918 105.273 176.068 105.28 175.21C105.274 174.349 105.441 173.496 105.77 172.7C106.081 171.929 106.544 171.229 107.13 170.64C107.721 170.041 108.424 169.565 109.2 169.24C110.037 168.884 110.94 168.707 111.85 168.72C112.755 168.709 113.654 168.883 114.49 169.23C115.26 169.544 115.958 170.01 116.542 170.602C117.127 171.193 117.585 171.897 117.89 172.67C118.527 174.276 118.527 176.064 117.89 177.67V177.68ZM115.76 173.48C115.556 172.957 115.258 172.476 114.88 172.06C114.499 171.643 114.04 171.303 113.53 171.06C112.987 170.825 112.401 170.706 111.81 170.71C111.221 170.699 110.637 170.819 110.1 171.06C109.597 171.279 109.144 171.599 108.77 172C108.391 172.413 108.096 172.895 107.9 173.42C107.491 174.534 107.491 175.756 107.9 176.87C108.098 177.396 108.397 177.879 108.78 178.29C109.159 178.71 109.618 179.05 110.13 179.29C110.671 179.53 111.258 179.65 111.85 179.64C112.438 179.648 113.02 179.532 113.56 179.3C114.065 179.058 114.517 178.718 114.89 178.3C115.269 177.887 115.564 177.405 115.76 176.88C115.966 176.33 116.071 175.747 116.07 175.16C116.064 174.586 115.959 174.018 115.76 173.48Z" fill="#005897"/>
<path d="M127 178.37L123 172.51V181.45H120.82V168.93H123.16L126.97 174.85L130.78 168.93H133.13V181.45H131V172.45L127 178.37Z" fill="#005897"/>
<path d="M148.19 181.45H145.86L144.59 178.45H138.67L137.39 181.45H135.13L140.64 168.84H142.64L148.19 181.45ZM141.63 171.45L139.48 176.45H143.79L141.63 171.45Z" fill="#005897"/>
<path d="M166.18 177.65C165.87 178.406 165.403 179.088 164.81 179.65C164.202 180.234 163.485 180.693 162.7 181C161.841 181.328 160.929 181.49 160.01 181.48H155.34V168.93H160C160.919 168.919 161.831 169.082 162.69 169.41C163.474 169.7 164.192 170.146 164.8 170.72C165.392 171.283 165.859 171.965 166.17 172.72C166.824 174.323 166.824 176.117 166.17 177.72L166.18 177.65ZM164 173.49C163.801 172.985 163.502 172.526 163.12 172.14C162.733 171.745 162.266 171.438 161.75 171.24C161.18 171.017 160.572 170.909 159.96 170.92H157.48V179.47H160C160.611 179.477 161.219 179.368 161.79 179.15C162.305 178.959 162.772 178.659 163.16 178.27C163.542 177.884 163.841 177.425 164.04 176.92C164.256 176.376 164.365 175.795 164.36 175.21C164.352 174.619 164.23 174.035 164 173.49Z" fill="#005897"/>
<path d="M178.41 170.92H171.33V174.14H177.61V176.14H171.33V179.49H178.5V181.49H169.15V168.93H178.41V170.92Z" fill="#005897"/>
<path d="M64 196.22L60 190.36V199.3H57.85V186.78H60.2L64 192.7L67.81 186.78H70.15V199.3H68V190.3L64 196.22Z" fill="#005897"/>
<path d="M85.18 199.3H82.86L81.59 196.3H75.67L74.38 199.3H72.13L77.63 186.69H79.63L85.18 199.3ZM78.62 189.3L76.47 194.3H80.78L78.62 189.3Z" fill="#005897"/>
<path d="M95.88 186.78H98.06V199.3H96.22L89.33 190.39V199.3H87.15V186.78H89.15L95.85 195.44L95.88 186.78Z" fill="#005897"/>
<path d="M103.41 186.78V199.3H101.22V186.78H103.41Z" fill="#005897"/>
<path d="M106.37 188.73V186.78H116.37V188.41L109 197.35H116.39V199.35H106.14V197.72L113.53 188.78L106.37 188.73Z" fill="#005897"/>
<path d="M131 199.3H128.67L127.4 196.3H121.48L120.2 199.3H117.94L123.45 186.69H125.45L131 199.3ZM124.43 189.3L122.29 194.3H126.6L124.43 189.3Z" fill="#005897"/>
<path d="M132.91 186.78H135.1V197.31H141.68V199.31H132.91V186.78Z" fill="#005897"/>
<path d="M153.07 188.77H146V192H152.28V194H146V197.34H153.17V199.34H143.82V186.78H153.08L153.07 188.77Z" fill="#005897"/>
<path d="M157.58 190.7C157.684 190.906 157.843 191.079 158.04 191.2C158.322 191.384 158.628 191.529 158.95 191.63C159.34 191.76 159.83 191.9 160.43 192.04C161.024 192.188 161.608 192.372 162.18 192.59C162.638 192.766 163.064 193.016 163.44 193.33C163.761 193.606 164.02 193.947 164.2 194.33C164.385 194.762 164.473 195.23 164.46 195.7C164.471 196.248 164.358 196.792 164.13 197.29C163.921 197.751 163.61 198.158 163.22 198.48C162.804 198.811 162.329 199.059 161.82 199.21C161.233 199.384 160.622 199.468 160.01 199.46C159.065 199.462 158.127 199.296 157.24 198.97C156.335 198.627 155.503 198.115 154.79 197.46L156.11 195.88C156.661 196.371 157.281 196.779 157.95 197.09C158.615 197.378 159.335 197.522 160.06 197.51C160.632 197.541 161.199 197.391 161.68 197.08C161.869 196.953 162.023 196.779 162.128 196.577C162.233 196.374 162.285 196.148 162.28 195.92C162.284 195.71 162.243 195.503 162.16 195.31C162.067 195.109 161.918 194.938 161.73 194.82C161.465 194.639 161.176 194.497 160.87 194.4C160.404 194.238 159.93 194.102 159.45 193.99C158.844 193.851 158.246 193.677 157.66 193.47C157.189 193.306 156.749 193.063 156.36 192.75C156.012 192.488 155.734 192.145 155.55 191.75C155.348 191.276 155.244 190.765 155.244 190.25C155.244 189.734 155.348 189.224 155.55 188.75C155.761 188.307 156.06 187.912 156.43 187.59C156.823 187.257 157.279 187.005 157.77 186.85C158.326 186.674 158.907 186.586 159.49 186.59C160.33 186.581 161.166 186.716 161.96 186.99C162.711 187.265 163.411 187.663 164.03 188.17L162.85 189.83C162.33 189.424 161.758 189.087 161.15 188.83C160.609 188.614 160.032 188.502 159.45 188.5C158.914 188.47 158.384 188.625 157.95 188.94C157.784 189.063 157.649 189.222 157.555 189.406C157.461 189.59 157.412 189.794 157.41 190C157.407 190.244 157.465 190.485 157.58 190.7Z" fill="#005897"/>
<path d="M52.88 130L58 128.19L63.11 126.64L68.29 125.22L73.47 124L78.73 122.93L84 122L89.33 121.3L94.66 120.78L100 120.42L105.37 120.23H110.74L116.1 120.41L121.43 120.78L126.77 121.3L132.08 122.01L137.39 122.9L142.64 123.97L147.86 125.2L153.02 126.62L158.16 128.18L163.23 129.94L166.84 131.33H166.78C165.65 130.33 164.14 129.33 163.78 129.05C161.78 127.7 157.04 126.27 157.04 126.27V119.53C157.04 118.42 154.92 117.36 154.26 117.21C153.179 117.074 152.09 117.004 151 117C150.653 116.978 150.315 116.883 150.007 116.723C149.699 116.563 149.427 116.34 149.21 116.069C148.993 115.798 148.834 115.485 148.745 115.149C148.655 114.814 148.636 114.463 148.69 114.12C148.916 113.167 148.811 112.165 148.39 111.28C147.8 110.4 145.01 109.92 143.01 109.68C142.553 109.626 142.132 109.405 141.828 109.06C141.523 108.715 141.357 108.27 141.36 107.81V72.65C141.36 72.1592 141.477 71.6756 141.702 71.2391C141.926 70.8026 142.251 70.4259 142.65 70.14L143.4 69.6L143.69 68.31C143.645 67.6991 143.804 67.0904 144.142 66.5798C144.481 66.0693 144.98 65.6859 145.56 65.49V65.37L145.23 64.19H140.4V58.88L141.4 58.57C141.497 58.5409 141.581 58.4814 141.642 58.4003C141.702 58.3193 141.734 58.221 141.734 58.12C141.734 58.019 141.702 57.9207 141.642 57.8397C141.581 57.7586 141.497 57.6991 141.4 57.67L140.9 57.49C140.42 56.58 139.1 52.81 138.14 52.65L135.22 52.49C135.093 52.4837 134.969 52.4484 134.858 52.3867C134.747 52.3251 134.652 52.2388 134.579 52.1344C134.507 52.0301 134.459 51.9105 134.44 51.7849C134.421 51.6593 134.432 51.5311 134.47 51.41C134.823 50.4468 134.862 49.3965 134.58 48.41C132.38 40.73 124.73 34.16 117.2 32.14C114.861 31.661 112.478 31.4297 110.09 31.45C111.43 29.85 113 28.33 113 26.07C113 24.36 111.74 21.99 108 21.89C104.23 21.99 103 24.36 103 26.07C103 28.33 104.57 29.85 105.92 31.45C103.532 31.4293 101.149 31.6605 98.81 32.14C91.27 34.14 83.62 40.73 81.42 48.41C81.1439 49.3971 81.1823 50.4458 81.53 51.41C81.5684 51.5311 81.5785 51.6593 81.5595 51.7849C81.5406 51.9105 81.493 52.0301 81.4206 52.1344C81.3481 52.2388 81.2527 52.3251 81.1416 52.3867C81.0306 52.4484 80.9068 52.4837 80.78 52.49L77.87 52.65C76.87 52.81 75.58 56.58 75.1 57.49L74.61 57.67C74.5133 57.6991 74.4286 57.7586 74.3684 57.8397C74.3081 57.9207 74.2756 58.019 74.2756 58.12C74.2756 58.221 74.3081 58.3193 74.3684 58.4003C74.4286 58.4814 74.5133 58.5409 74.61 58.57L75.61 58.88V64.19H70.75L70.42 65.37V65.49C71.0014 65.6844 71.5012 66.0674 71.84 66.5783C72.1788 67.0893 72.3372 67.6988 72.29 68.31L72.58 69.6L73.34 70.14C73.7358 70.4281 74.0581 70.8056 74.2805 71.2417C74.5029 71.6779 74.6192 72.1604 74.62 72.65V107.83C74.6241 108.286 74.4617 108.727 74.1634 109.071C73.8651 109.416 73.4514 109.639 73 109.7C71 109.94 68.21 110.42 67.62 111.3C67.1994 112.185 67.0935 113.187 67.32 114.14C67.3705 114.483 67.3493 114.832 67.2578 115.166C67.1662 115.5 67.0063 115.811 66.7882 116.08C66.5701 116.349 66.2986 116.569 65.9907 116.728C65.6829 116.886 65.3455 116.979 65 117C63.9001 117.003 62.8014 117.074 61.71 117.21C61.06 117.36 58.93 118.42 58.93 119.53C58.93 121.21 58.93 126.27 58.93 126.27C58.93 126.27 54.1 127.7 52.14 129.05C51.79 129.31 50.28 130.35 49.14 131.33L47.97 131.78L52.88 130ZM108.66 48C110.197 47.998 111.7 48.452 112.979 49.3046C114.259 50.1572 115.256 51.37 115.846 52.7896C116.435 54.2092 116.591 55.7718 116.292 57.2797C115.993 58.7876 115.254 60.173 114.168 61.2607C113.081 62.3483 111.697 63.0893 110.19 63.39C108.682 63.6906 107.119 63.5373 105.699 62.9495C104.278 62.3617 103.064 61.3658 102.21 60.0878C101.356 58.8098 100.9 57.3072 100.9 55.77C100.899 54.7501 101.098 53.7399 101.488 52.7973C101.877 51.8547 102.449 50.998 103.169 50.2764C103.89 49.5547 104.746 48.9823 105.688 48.5917C106.63 48.201 107.64 48 108.66 48Z" fill="#FFD615"/>
<path d="M108.66 63.57C107.122 63.572 105.619 63.1177 104.339 62.2647C103.06 61.4117 102.063 60.1983 101.473 58.7781C100.884 57.3579 100.729 55.7948 101.029 54.2866C101.328 52.7784 102.069 51.393 103.156 50.3058C104.243 49.2185 105.628 48.4783 107.137 48.1788C108.645 47.8793 110.208 48.034 111.628 48.6234C113.048 49.2127 114.262 50.2102 115.115 51.4895C115.968 52.7688 116.422 54.2724 116.42 55.81C116.42 56.8291 116.219 57.8381 115.829 58.7796C115.439 59.7211 114.868 60.5766 114.147 61.2971C113.427 62.0177 112.571 62.5893 111.63 62.9793C110.688 63.3693 109.679 63.57 108.66 63.57Z" fill="#005897"/>
<path d="M189.44 148.32L184.96 145.68L180.41 143.21L175.76 140.88L171.04 138.71L166.26 136.71L161.42 134.85L156.51 133.15L151.55 131.64L146.54 130.27L141.49 129.08L136.4 128.04L131.27 127.18L126.14 126.5L120.97 126L115.8 125.64L110.61 125.47H105.42L100.22 125.64L95.06 126L89.88 126.5L84.73 127.18L79.62 128.04L74.53 129.08L69.48 130.27L64.47 131.64L59.51 133.15L54.6 134.85L49.76 136.71L44.96 138.71L40.26 140.88L35.61 143.21L31.06 145.68L26.56 148.32L22.19 151.1L28.07 148.91L34 146.91L39.99 145.04L46.02 143.33L52.09 141.8L58.22 140.41L64.38 139.18L70.54 138.12L76.74 137.22L82.97 136.48L89.21 135.91L95.48 135.48L101.73 135.24H114.29L120.54 135.48L126.79 135.91L133.05 136.48L139.26 137.22L145.47 138.12L151.65 139.18L157.8 140.41L163.91 141.8L169.99 143.33L176.03 145.04L182.02 146.91L187.95 148.91L193.84 151.1L189.44 148.32Z" fill="#005897"/>
<path d="M103.87 53.33L104.13 53L107.95 55.3L112.91 52.08L113.27 52.66L108.46 55.79L110.77 57.94L107.94 56.13L107.11 56.67L106.74 56.08L107.36 55.66L103.87 53.33Z" fill="white"/>
<path d="M109.5 68C112.052 67.812 114.476 66.8134 116.42 65.15L114.67 63.4C113.194 64.6011 111.395 65.3357 109.5 65.51V68Z" fill="white"/>
<path d="M116 62L117.74 63.75C119.412 61.8047 120.421 59.3773 120.62 56.82H118.18C117.985 58.7252 117.226 60.5288 116 62Z" fill="white"/>
<path d="M120.67 54.9C120.462 52.3556 119.458 49.9414 117.8 48L116.09 49.71C117.301 51.2054 118.046 53.0244 118.23 54.94L120.67 54.9Z" fill="white"/>
<path d="M100.67 65.09C102.608 66.766 105.027 67.7847 107.58 68V65.46C105.694 65.266 103.906 64.5218 102.44 63.32L100.67 65.09Z" fill="white"/>
<path d="M99.3 48C97.6366 49.9439 96.638 52.3685 96.45 54.92H98.91C99.0814 53.0161 99.8082 51.2045 101 49.71L99.3 48Z" fill="white"/>
<path d="M107.58 43.73C105.022 43.9327 102.594 44.945 100.65 46.62L102.38 48.34C103.855 47.1067 105.667 46.3438 107.58 46.15V43.73Z" fill="white"/>
<path d="M116.44 46.6C114.49 44.9303 112.06 43.925 109.5 43.73V46.15C111.421 46.3288 113.243 47.0814 114.73 48.31L116.44 46.6Z" fill="white"/>
<path d="M96.45 56.82C96.6531 59.3667 97.6539 61.7846 99.31 63.73L101.07 62C99.8651 60.5344 99.1175 58.747 98.92 56.86L96.45 56.82Z" fill="white"/>
<path d="M112.26 112.6H118.28V106.58H112.26V112.6Z" fill="white"/>
<path d="M104.91 112.6H110.93V106.58H104.91V112.6Z" fill="white"/>
<path d="M97.55 112.6H103.57V106.58H97.55V112.6Z" fill="white"/>
<path d="M112.26 105.08H118.28V99.06H112.26V105.08Z" fill="white"/>
<path d="M104.91 105.08H110.93V99.06H104.91V105.08Z" fill="white"/>
<path d="M97.55 105.08H103.57V99.06H97.55V105.08Z" fill="white"/>
<path d="M118.28 97.58H112.28V91.58H117.55C117.754 91.58 117.95 91.6611 118.094 91.8055C118.239 91.9499 118.32 92.1458 118.32 92.35V97.58H118.28Z" fill="white"/>
<path d="M104.91 97.58H110.93V91.56H104.91V97.58Z" fill="white"/>
<path d="M103.57 97.58H97.57V92.33C97.57 92.1258 97.6511 91.9299 97.7955 91.7855C97.9399 91.6411 98.1358 91.56 98.34 91.56H103.57V97.56V97.58Z" fill="white"/>
<path d="M99.26 118.09L103.58 117.94V114.08H97.56V118.2L99.26 118.09Z" fill="white"/>
<path d="M110.05 117.91L110.93 117.94V114.08H104.91V117.91H110.05Z" fill="white"/>
<path d="M115.44 118.1L118.29 118.29V114.08H112.27V117.99L115.44 118.1Z" fill="white"/>
<path d="M145.44 114C137.99 110.85 127.09 109 124.44 108.59V90.84C124.445 90.8102 124.445 90.7798 124.44 90.75C124.445 90.6901 124.445 90.6299 124.44 90.57C124.445 90.5436 124.445 90.5164 124.44 90.49C124.445 90.4669 124.445 90.4431 124.44 90.42L124.38 90.36H124.31H124.23L108.38 83.87C108.298 83.8353 108.209 83.8175 108.12 83.8175C108.031 83.8175 107.942 83.8353 107.86 83.87L91.81 90.21C91.6827 90.2588 91.5734 90.3453 91.4966 90.4578C91.4197 90.5704 91.3791 90.7037 91.38 90.84V108.57C88.75 108.99 77.85 110.83 70.38 113.98C70.2365 114.044 70.1192 114.155 70.0475 114.295C69.9757 114.434 69.9537 114.594 69.9852 114.748C70.0167 114.902 70.0997 115.041 70.2206 115.141C70.3415 115.241 70.4929 115.297 70.65 115.3C70.7401 115.3 70.8292 115.28 70.91 115.24C79.23 111.72 92.02 109.86 92.14 109.84C92.3034 109.816 92.4529 109.734 92.5612 109.609C92.6694 109.485 92.7293 109.325 92.73 109.16V91.3L107.9 85.09L123.07 91.3V109.16C123.071 109.325 123.131 109.485 123.239 109.609C123.347 109.734 123.497 109.816 123.66 109.84C123.79 109.84 136.57 111.72 144.89 115.24C144.975 115.279 145.067 115.299 145.16 115.3C145.316 115.295 145.466 115.238 145.585 115.137C145.705 115.036 145.786 114.897 145.816 114.744C145.846 114.59 145.824 114.431 145.752 114.293C145.68 114.154 145.563 114.044 145.42 113.98L145.44 114Z" fill="white"/>
<path d="M91.28 112.73C89.03 113.08 86.82 113.49 84.68 113.98C81.0674 114.791 77.5021 115.799 74 117C70.68 118.13 67.6 119.36 64.82 120.62L63.16 121.4V124.92L66.1 123.99C68.93 123.13 72.02 122.29 75.3 121.51C78.58 120.73 82.06 120.01 85.69 119.51C87.49 119.2 89.34 118.99 91.21 118.74C91.53 118.74 91.85 118.66 92.21 118.63V113.63C92.2234 113.506 92.2083 113.38 92.1658 113.263C92.1234 113.146 92.0547 113.039 91.965 112.953C91.8753 112.866 91.7669 112.801 91.6482 112.762C91.5295 112.724 91.4036 112.713 91.28 112.73Z" fill="white"/>
<path d="M152.54 121.05C149.75 119.8 146.67 118.57 143.35 117.43C139.86 116.24 136.308 115.239 132.71 114.43C130.57 113.93 128.36 113.52 126.12 113.18C126.004 113.163 125.885 113.171 125.772 113.204C125.659 113.236 125.554 113.293 125.465 113.37C125.376 113.447 125.304 113.542 125.255 113.649C125.206 113.756 125.18 113.872 125.18 113.99V118.99C125.5 118.99 125.83 119.05 126.18 119.1C128.04 119.35 129.89 119.57 131.7 119.88C135.32 120.43 138.8 121.17 142.09 121.88C145.38 122.59 148.46 123.5 151.29 124.37L152.62 124.79L152.54 121.05Z" fill="white"/>
<path d="M182.86 138.63L178.07 136.23L173.18 134L170.4 132.83C170.34 130.83 167.6 129.07 165.05 127.3C163.175 126.161 161.239 125.127 159.25 124.2V119.57C159.25 117.26 156.72 115.48 154.73 115.08C153.428 114.93 152.12 114.847 150.81 114.83C151.62 109.68 149.01 108.43 145.14 107.83C144.699 107.758 144.299 107.532 144.011 107.19C143.723 106.849 143.567 106.416 143.57 105.97L143.65 72.12C145.22 70.96 145.89 70.65 145.89 68.37C145.89 67.23 147.89 67.58 147.81 65.18L147.43 63.83C147.299 63.3099 146.999 62.848 146.578 62.5168C146.156 62.1855 145.636 62.0038 145.1 62H142.6V60.66C145.79 59.66 145.99 56.66 142.43 55.57C140.95 52.57 140.96 50.57 136.99 50.36C137.42 45.14 131.99 38.88 128.71 35.91C124.733 32.3108 119.75 30.0146 114.43 29.33C114.948 28.3093 115.229 27.1845 115.25 26.04C115.25 23.19 113.1 19.9 108.25 19.68H107.73C102.9 19.9 100.73 23.19 100.73 26.04C100.75 27.186 101.034 28.3119 101.56 29.33C96.2365 30.0127 91.2497 32.3089 87.27 35.91C84 38.88 78.6 45.14 79 50.36C75 50.59 75 52.55 73.56 55.57C70 56.66 70.2 59.64 73.39 60.66V62H70.93C70.3999 61.998 69.8839 62.1702 69.4612 62.4899C69.0384 62.8097 68.7324 63.2594 68.59 63.77L68.21 65.12C68.21 67.52 70.13 67.12 70.13 68.31C70.13 70.59 70.8 70.9 72.37 72.06L72.46 105.91C72.4594 106.355 72.3015 106.786 72.0143 107.126C71.727 107.467 71.3289 107.695 70.89 107.77C67.01 108.41 64.4 109.66 65.21 114.77C63.8999 114.787 62.5916 114.871 61.29 115.02C59.29 115.42 56.77 117.2 56.77 119.51V124.14C54.7814 125.067 52.8452 126.101 50.97 127.24C48.42 129.01 45.69 130.75 45.62 132.77L42.93 133.89L38.06 136.14L33.28 138.53C33.072 138.635 32.9142 138.818 32.8411 139.039C32.768 139.261 32.7856 139.502 32.89 139.71C32.995 139.918 33.1782 140.076 33.3994 140.149C33.6206 140.222 33.8617 140.204 34.07 140.1L38.82 137.72L43.63 135.5L48.53 133.5L53.48 131.61L58.48 129.86L63.54 128.33L68.66 126.93L73.81 125.71L79.02 124.65L84.25 123.78L89.51 123.09L94.79 122.57L100.08 122.21L105.39 122.03H110.69L116 122.21L121.27 122.57L126.56 123.09L131.81 123.79L137.05 124.67L142.25 125.73L147.41 126.95L152.52 128.34L157.61 129.89L162.61 131.63L167.55 133.53L172.44 135.58L177.27 137.8L182.03 140.2C182.155 140.26 182.291 140.291 182.43 140.29C182.629 140.291 182.822 140.224 182.978 140.1C183.134 139.977 183.244 139.804 183.289 139.61C183.335 139.416 183.313 139.213 183.228 139.033C183.142 138.853 182.999 138.708 182.82 138.62L182.86 138.63ZM158.18 128.23L153 126.67L147.84 125.25L142.66 124L137.41 123L132.1 122.11L126.79 121.4L121.45 120.88L116.12 120.51L110.76 120.33H105.39L100.02 120.52L94.68 120.88L89.35 121.4L84 122L78.71 122.89L73.47 124L68.26 125.22L63.08 126.64L58 128.19L52.88 130L48.11 131.83L49.23 131.4C50.36 130.4 51.87 129.4 52.23 129.12C54.23 127.77 59.02 126.34 59.02 126.34C59.02 126.34 59.02 121.28 59.02 119.6C59.02 118.49 61.15 117.43 61.8 117.28C62.8602 117.124 63.9287 117.03 65 117C65.3458 116.976 65.6829 116.881 65.9899 116.72C66.2969 116.56 66.5672 116.337 66.7834 116.066C66.9997 115.795 67.1573 115.482 67.2462 115.147C67.3352 114.812 67.3535 114.462 67.3 114.12C67.0735 113.167 67.1794 112.165 67.6 111.28C68.19 110.4 70.99 109.92 72.98 109.68C73.4369 109.626 73.8578 109.405 74.1622 109.06C74.4666 108.715 74.6332 108.27 74.63 107.81V72.65C74.6293 72.1604 74.513 71.6779 74.2905 71.2417C74.0681 70.8056 73.7459 70.4281 73.35 70.14L72.59 69.6L72.3 68.31C72.3472 67.6988 72.1889 67.0893 71.85 66.5783C71.5112 66.0674 71.0114 65.6844 70.43 65.49V65.37L70.76 64.19H75.63V58.88L74.63 58.57C74.5333 58.5409 74.4486 58.4814 74.3884 58.4003C74.3282 58.3193 74.2956 58.221 74.2956 58.12C74.2956 58.019 74.3282 57.9207 74.3884 57.8397C74.4486 57.7586 74.5333 57.6991 74.63 57.67L75.12 57.49C75.6 56.58 76.92 52.81 77.89 52.65L80.8 52.49C80.9269 52.4837 81.0506 52.4484 81.1617 52.3867C81.2727 52.3251 81.3681 52.2388 81.4406 52.1344C81.5131 52.0301 81.5606 51.9105 81.5796 51.7849C81.5985 51.6593 81.5884 51.5311 81.55 51.41C81.2024 50.4458 81.1639 49.3971 81.44 48.41C83.64 40.73 91.29 34.16 98.83 32.14C101.169 31.6605 103.552 31.4293 105.94 31.45C104.54 29.82 103 28.3 103 26C103 24.29 104.27 21.92 108 21.82C111.78 21.92 113 24.29 113 26C113 28.26 111.43 29.78 110.09 31.38C112.478 31.3597 114.861 31.591 117.2 32.07C124.73 34.07 132.38 40.66 134.58 48.34C134.862 49.3265 134.823 50.3768 134.47 51.34C134.432 51.4611 134.421 51.5893 134.44 51.7149C134.459 51.8405 134.507 51.9601 134.579 52.0644C134.652 52.1688 134.747 52.2551 134.858 52.3167C134.969 52.3784 135.093 52.4137 135.22 52.42L138.14 52.58C139.14 52.74 140.42 56.51 140.9 57.42L141.4 57.6C141.497 57.6291 141.581 57.6886 141.642 57.7697C141.702 57.8507 141.734 57.949 141.734 58.05C141.734 58.151 141.702 58.2493 141.642 58.3303C141.581 58.4114 141.497 58.4709 141.4 58.5L140.4 58.81V64.12H145.27L145.6 65.3V65.42C145.02 65.6159 144.521 65.9993 144.182 66.5098C143.844 67.0204 143.685 67.6291 143.73 68.24L143.44 69.53L142.69 70.07C142.291 70.3559 141.966 70.7326 141.742 71.1691C141.517 71.6056 141.4 72.0892 141.4 72.58V107.76C141.378 108.224 141.529 108.68 141.825 109.039C142.121 109.398 142.54 109.633 143 109.7C145 109.94 147.79 110.42 148.38 111.3C148.801 112.185 148.906 113.187 148.68 114.14C148.629 114.483 148.651 114.832 148.742 115.166C148.834 115.5 148.994 115.811 149.212 116.08C149.43 116.349 149.701 116.569 150.009 116.728C150.317 116.886 150.654 116.979 151 117C152.097 117.004 153.192 117.074 154.28 117.21C154.94 117.36 157.06 118.42 157.06 119.53V126.27C157.06 126.27 161.84 127.7 163.8 129.05C164.16 129.31 165.67 130.35 166.8 131.33L167 131.41L163.25 130L158.18 128.23Z" fill="#005897"/>
<path d="M123.47 245.1H92.55C92.5281 245.1 92.5065 245.096 92.4864 245.087C92.4663 245.078 92.4482 245.066 92.4332 245.05C92.4182 245.034 92.4066 245.015 92.3992 244.994C92.3918 244.974 92.3887 244.952 92.39 244.93V243.42C92.39 243.378 92.4069 243.337 92.4369 243.307C92.4669 243.277 92.5076 243.26 92.55 243.26H123.47C123.512 243.26 123.553 243.277 123.583 243.307C123.613 243.337 123.63 243.378 123.63 243.42V244.93C123.631 244.952 123.628 244.974 123.621 244.994C123.613 245.015 123.602 245.034 123.587 245.05C123.572 245.066 123.554 245.078 123.534 245.087C123.514 245.096 123.492 245.1 123.47 245.1Z" fill="#FFD615"/>
<mask id="mask0_9_6" style="mask-type:luminance" maskUnits="userSpaceOnUse" x="92" y="243" width="32" height="3">
<path d="M123.47 245.1H92.55C92.5281 245.1 92.5065 245.096 92.4864 245.087C92.4663 245.078 92.4482 245.066 92.4332 245.05C92.4182 245.034 92.4066 245.015 92.3992 244.994C92.3918 244.974 92.3887 244.952 92.39 244.93V243.42C92.39 243.378 92.4069 243.337 92.4369 243.307C92.4669 243.277 92.5076 243.26 92.55 243.26H123.47C123.512 243.26 123.553 243.277 123.583 243.307C123.613 243.337 123.63 243.378 123.63 243.42V244.93C123.631 244.952 123.628 244.974 123.621 244.994C123.613 245.015 123.602 245.034 123.587 245.05C123.572 245.066 123.554 245.078 123.534 245.087C123.514 245.096 123.492 245.1 123.47 245.1Z" fill="white"/>
</mask>
<g mask="url(#mask0_9_6)">
<path d="M123.63 245.1H92.39V243.26H123.63V245.1Z" fill="#FFD615"/>
</g>
<path d="M65.49 259.33L63.77 253.05H64.67L66.07 258.39L67.47 253.05H68.36L66.65 259.33H65.49Z" fill="#727176"/>
<path d="M69.87 259.28H69V253.05H69.83L69.87 259.28Z" fill="#727176"/>
<path d="M70.77 256.32V256C70.77 253.85 71.53 252.95 73.03 252.95C74.53 252.95 75.1 253.64 75.1 255.11V255.36H74.26C74.26 254.22 73.94 253.69 73.08 253.69H73C72 253.69 71.59 254.42 71.59 256V256.32C71.59 257.9 72 258.64 73.06 258.64H73.13C73.5389 258.654 73.9384 258.515 74.25 258.25V256.83H73.25V256.1H75.1V258.65C74.8321 258.898 74.5169 259.09 74.1733 259.213C73.8297 259.337 73.4647 259.39 73.1 259.37C71.53 259.37 70.77 258.48 70.77 256.32Z" fill="#727176"/>
<path d="M76.92 259.28H76.09V253.05H76.92V259.28Z" fill="#727176"/>
<path d="M78 259.28V253.05H78.83V258.54H81.3V259.28H78Z" fill="#727176"/>
<path d="M84.4 253L86.11 259.28H85.22L84.83 257.78H82.83L82.44 259.28H81.54L83.24 253H84.4ZM83 257H84.62L83.81 253.89L83 257Z" fill="#727176"/>
<path d="M88.5 259.28H86.75V253.05H88.5C90.14 253.05 90.98 253.85 90.98 256V256.32C91 258.48 90.14 259.28 88.5 259.28ZM88.44 258.54C89.59 258.54 90.13 257.9 90.13 256.32V256C90.13 254.42 89.59 253.78 88.44 253.78H87.58V258.54H88.44Z" fill="#727176"/>
<path d="M94.26 253L96 259.28H95.11L94.71 257.78H92.71L92.32 259.28H91.42L93.11 253H94.26ZM92.87 257H94.5L93.69 253.89L92.87 257Z" fill="#727176"/>
<path d="M101.31 259.28H100.5L98.93 254.49V255.83V259.28H98.1V253.05H99.31L100.87 257.84L102.43 253.05H103.64V259.28H102.81V255.83V254.49L101.31 259.28Z" fill="#727176"/>
<path d="M105.53 259.28H104.7V253.05H105.53V259.28Z" fill="#727176"/>
<path d="M110.81 259.28H109.93L107.31 254.52V255.9V259.28H106.52V253.05H107.4L110.02 257.81V256.43V253.05H110.81V259.28Z" fill="#727176"/>
<path d="M115.4 253.05V253.78H112.63V255.73H115V256.47H112.63V258.54H115.4V259.28H111.8V253.05H115.4Z" fill="#727176"/>
<path d="M117.92 259.28H116.17V253.05H117.92C119.56 253.05 120.4 253.85 120.4 256V256.32C120.4 258.48 119.56 259.28 117.92 259.28ZM117.86 258.54C119.01 258.54 119.55 257.9 119.55 256.32V256C119.55 254.42 119.01 253.78 117.86 253.78H117V258.54H117.86Z" fill="#727176"/>
<path d="M121.21 257.34V253.05H122.05V257.3C122.05 258.3 122.43 258.64 123.31 258.64C124.19 258.64 124.56 258.29 124.56 257.3V253.05H125.39V257.34C125.39 258.78 124.76 259.34 123.31 259.34C121.86 259.34 121.21 258.78 121.21 257.34Z" fill="#727176"/>
<path d="M128.4 258.64H128.46C129.29 258.64 129.62 258.11 129.62 257.21H130.46V257.29C130.504 257.571 130.481 257.859 130.393 258.13C130.305 258.401 130.155 258.647 129.955 258.85C129.754 259.052 129.509 259.204 129.239 259.295C128.969 259.385 128.682 259.411 128.4 259.37C126.91 259.37 126.21 258.48 126.21 256.32V256C126.21 253.85 126.91 252.95 128.4 252.95C129.89 252.95 130.46 253.64 130.46 255.11V255.36H129.62C129.62 254.22 129.3 253.69 128.46 253.69H128.4C127.4 253.69 127.06 254.42 127.06 256V256.32C127.06 257.9 127.43 258.64 128.4 258.64Z" fill="#727176"/>
<path d="M133.72 253L135.44 259.28H134.54L134.15 257.78H132.15L131.76 259.28H130.85L132.57 253H133.72ZM132.33 257H134L133.18 253.89L132.33 257Z" fill="#727176"/>
<path d="M138 258.64H138.05C138.89 258.64 139.22 258.11 139.22 257.21H140.06V257.29C140.104 257.571 140.081 257.859 139.993 258.13C139.905 258.401 139.755 258.647 139.555 258.85C139.354 259.052 139.109 259.204 138.839 259.295C138.569 259.385 138.282 259.411 138 259.37C136.5 259.37 135.8 258.48 135.8 256.32V256C135.8 253.85 136.5 252.95 138 252.95C139.5 252.95 140.06 253.64 140.06 255.11V255.36H139.22C139.22 254.22 138.9 253.69 138.05 253.69H138C137 253.69 136.66 254.42 136.66 256V256.32C136.7 257.9 137.06 258.64 138 258.64Z" fill="#727176"/>
<path d="M141.8 259.28H141V253.05H141.83L141.8 259.28Z" fill="#727176"/>
<path d="M142.69 256.32V256C142.69 253.85 143.42 252.95 144.92 252.95C146.42 252.95 147.14 253.85 147.14 256V256.32C147.14 258.48 146.41 259.37 144.92 259.37C143.43 259.37 142.69 258.48 142.69 256.32ZM144.94 258.64C145.94 258.64 146.29 257.9 146.29 256.32V256C146.29 254.42 145.9 253.69 144.94 253.69H144.89C143.89 253.69 143.55 254.42 143.55 256V256.32C143.55 257.9 143.93 258.64 144.89 258.64H144.94ZM145.83 251.69L145.33 252.57H144.51L144.98 251.69H145.83Z" fill="#727176"/>
<path d="M152.25 259.28H151.36L148.75 254.52V255.9V259.28H148V253.05H148.89L151.5 257.81V256.43V253.05H152.29L152.25 259.28Z" fill="#727176"/>
</svg>
